<?xml version="1.0" encoding="utf-8"?>
<!-- Generator: Adobe Illustrator 15.1.0, SVG Export Plug-In . SVG Version: 6.00 Build 0)  -->
<!DOCTYPE svg PUBLIC "-//W3C//DTD SVG 1.1//EN" "http://www.w3.org/Graphics/SVG/1.1/DTD/svg11.dtd">
<svg version="1.1" id="Layer_1" xmlns="http://www.w3.org/2000/svg" xmlns:xlink="http://www.w3.org/1999/xlink" x="0px" y="0px"
	 width="175.1px" height="40.785px" viewBox="0 0 175.1 40.785" enable-background="new 0 0 175.1 40.785" xml:space="preserve">
<g>
	<g>
		<path fill="#FF9900" d="M1.455,4.288h12.823v5.71H8.404v2.415h5.775v5.416H8.404v8.223h-6.95V4.288z"/>
		<path fill="#FF9900" d="M24.98,26.606c-1.371,0-2.61-0.175-3.72-0.522s-2.056-0.87-2.839-1.566s-1.387-1.577-1.811-2.643
			c-0.424-1.065-0.636-2.317-0.636-3.752V4.288h6.95v13.541c0,0.762,0.157,1.344,0.473,1.746c0.315,0.402,0.843,0.604,1.583,0.604
			c0.739,0,1.267-0.201,1.583-0.604c0.315-0.402,0.473-0.984,0.473-1.746V4.288h6.982v13.834c0,1.436-0.212,2.687-0.636,3.752
			c-0.424,1.065-1.034,1.946-1.827,2.643c-0.794,0.696-1.746,1.219-2.855,1.566S26.35,26.606,24.98,26.606z"/>
		<path fill="#FF9900" d="M36.204,4.288h5.71l6.003,8.385V4.288h6.82v21.764h-5.743l-5.971-8.354v8.354h-6.819V4.288z"/>
		<path d="M56.531,15.186c0-1.566,0.299-3.045,0.897-4.438c0.598-1.392,1.414-2.605,2.447-3.638
			c1.033-1.033,2.246-1.849,3.638-2.447c1.392-0.598,2.871-0.897,4.438-0.897c1.566,0,3.045,0.299,4.438,0.897
			c1.392,0.599,2.604,1.415,3.638,2.447c1.032,1.033,1.849,2.246,2.446,3.638c0.599,1.392,0.898,2.871,0.898,4.438
			c0,1.566-0.3,3.045-0.898,4.438c-0.598,1.392-1.414,2.605-2.446,3.638c-1.034,1.033-2.247,1.849-3.638,2.446
			c-1.393,0.599-2.872,0.898-4.438,0.898c-1.566,0-3.046-0.3-4.438-0.898c-1.393-0.598-2.605-1.413-3.638-2.446
			c-1.034-1.033-1.849-2.246-2.447-3.638C56.83,18.231,56.531,16.751,56.531,15.186z M63.383,15.186c0,0.631,0.12,1.224,0.359,1.778
			s0.565,1.039,0.979,1.452c0.413,0.414,0.897,0.74,1.452,0.979c0.555,0.24,1.147,0.359,1.778,0.359c0.63,0,1.224-0.119,1.778-0.359
			c0.555-0.239,1.038-0.565,1.452-0.979c0.413-0.413,0.739-0.897,0.979-1.452c0.239-0.555,0.359-1.147,0.359-1.778
			s-0.12-1.224-0.359-1.778c-0.24-0.555-0.566-1.039-0.979-1.452c-0.414-0.413-0.897-0.739-1.452-0.979s-1.148-0.359-1.778-0.359
			c-0.631,0-1.224,0.12-1.778,0.359s-1.039,0.566-1.452,0.979c-0.414,0.414-0.74,0.897-0.979,1.452S63.383,14.555,63.383,15.186z"/>
		<path d="M80.675,15.186c0-1.566,0.299-3.045,0.897-4.438c0.598-1.392,1.414-2.605,2.447-3.638
			c1.033-1.033,2.246-1.849,3.639-2.447c1.391-0.598,2.871-0.897,4.437-0.897c1.566,0,3.046,0.299,4.438,0.897
			c1.393,0.599,2.605,1.415,3.639,2.447c1.032,1.033,1.849,2.246,2.447,3.638c0.598,1.392,0.896,2.871,0.896,4.438
			c0,1.566-0.299,3.045-0.896,4.438c-0.599,1.392-1.415,2.605-2.447,3.638c-1.033,1.033-2.246,1.849-3.639,2.446
			c-1.392,0.599-2.871,0.898-4.438,0.898c-1.565,0-3.046-0.3-4.437-0.898c-1.393-0.598-2.605-1.413-3.639-2.446
			s-1.85-2.246-2.447-3.638C80.974,18.231,80.675,16.751,80.675,15.186z M87.528,15.186c0,0.631,0.119,1.224,0.358,1.778
			s0.565,1.039,0.979,1.452c0.412,0.414,0.896,0.74,1.451,0.979c0.555,0.24,1.147,0.359,1.778,0.359s1.224-0.119,1.778-0.359
			c0.555-0.239,1.039-0.565,1.452-0.979c0.413-0.413,0.739-0.897,0.979-1.452s0.359-1.147,0.359-1.778s-0.12-1.224-0.359-1.778
			s-0.565-1.039-0.979-1.452c-0.413-0.413-0.897-0.739-1.452-0.979s-1.147-0.359-1.778-0.359s-1.224,0.12-1.778,0.359
			s-1.039,0.566-1.451,0.979c-0.414,0.414-0.74,0.897-0.979,1.452S87.528,14.555,87.528,15.186z"/>
		<path fill="#FF9900" d="M105.309,4.288h5.743l5.678,8.353l5.645-8.353h5.742v21.764h-6.949V18.22l-4.438,6.526l-4.471-6.526v7.832
			h-6.95V4.288z"/>
		<path fill="#FF9900" d="M135.361,16.687l-6.754-12.399h7.732l2.513,4.601l2.479-4.601h7.733l-6.754,12.399v9.365h-6.95V16.687z"/>
	</g>
	<g>
		<path fill="#FF9900" d="M96.472,28.913c0,0.795,0,1.193,0,1.988c0,0.207-0.34,0.494-1.025,0.906s-1.674,0.932-3.048,1.48
			c-1.374,0.551-3.092,1.115-5.201,1.551c-2.109,0.434-4.564,0.721-7.291,0.719c-2.726-0.002-5.179-0.295-7.287-0.73
			c-2.107-0.438-3.813-1.002-5.167-1.545c-1.354-0.545-2.335-1.062-3.021-1.475s-1.024-0.699-1.024-0.906c0-0.795,0-1.193,0-1.988"
			/>
	</g>
</g>
</svg>
